<svg version="1.1" xmlns="http://www.w3.org/2000/svg" xmlns:xlink="http://www.w3.org/1999/xlink" width="500" height="500"><defs/><g><g><path fill="none" stroke="#000000" paint-order="fill stroke markers" d=" M 105 35.310001730918884 L 174 35.310001730918884 L 174 105.93000519275665 L 339 105.93000519275665 L 339 35.310001730918884 L 375 35.310001730918884 L 408 70.62000346183777 L 408 301.74001479148865 L 381 301.74001479148865 L 381 179.76000881195068 L 192 179.76000881195068 L 186 173.34000849723816 L 159 173.34000849723816 L 156 179.76000881195068 L 135 179.76000881195068 L 135 208.65001022815704 L 105 231.12001132965088 L 105 35.310001730918884" stroke-linecap="square" stroke-linejoin="round" stroke-miterlimit="10" stroke-width="3.210000157356262" stroke-dasharray=""/><path fill="none" stroke="#000000" paint-order="fill stroke markers" d=" M 99 231.12001132965088 L 99 32.10000157356262 L 378 32.10000157356262 L 414 70.62000346183777 L 414 304.9500149488449 L 258 304.9500149488449 L 258 321.0000157356262 L 246 346.6800169944763 L 234 362.73001778125763 L 222 372.3600182533264 L 204 401.2500196695328 L 180 414.0900202989578 L 180 449.4000220298767 L 30 449.4000220298767 L 30 349.8900171518326 L 27 349.8900171518326 L 27 260.01001274585724 L 39 240.75001180171967 L 60 221.4900108575821 L 63 208.65001022815704 L 75 186.1800091266632 L 90 176.55000865459442 L 99 173.34000849723816 L 99 173.34000849723816 L 90 179.76000881195068 L 78 186.1800091266632 L 66 208.65001022815704 L 63 221.4900108575821 L 42 240.75001180171967 L 30 260.01001274585724 L 30 346.6800169944763 L 33 349.8900171518326 L 33 446.19002187252045 L 120 446.19002187252045 L 120 378.78001856803894 L 144 378.78001856803894 L 156 365.9400179386139 L 156 304.9500149488449 L 150 295.3200144767761 L 150 263.2200129032135 L 195 221.4900108575821 L 195 182.97000896930695 L 186 176.55000865459442 L 177 176.55000865459442 L 186 186.1800091266632 L 186 208.65001022815704 L 183 211.8600103855133 L 162 211.8600103855133 L 153 202.23000991344452 L 126 224.70001101493835 L 90 243.96001195907593 L 54 272.8500133752823 L 54 269.640013217926 L 90 240.75001180171967 L 78 237.5400116443634 L 69 227.91001117229462 L 78 234.33001148700714 L 90 237.5400116443634 L 99 231.12001132965088" stroke-linecap="square" stroke-linejoin="round" stroke-miterlimit="10" stroke-width="3.210000157356262" stroke-dasharray=""/><path fill="none" stroke="#000000" paint-order="fill stroke markers" d=" M 150 195.810009598732 L 156 173.34000849723816 L 180 176.55000865459442 L 183 186.1800091266632 L 183 208.65001022815704 L 162 208.65001022815704 L 150 195.810009598732" stroke-linecap="square" stroke-linejoin="round" stroke-miterlimit="10" stroke-width="3.210000157356262" stroke-dasharray=""/><path fill="none" stroke="#000000" paint-order="fill stroke markers" d=" M 153 295.3200144767761 L 153 263.2200129032135 L 198 221.4900108575821 L 198 182.97000896930695 L 375 182.97000896930695 L 375 301.74001479148865 L 156 301.74001479148865 L 153 288.9000141620636" stroke-linecap="square" stroke-linejoin="round" stroke-miterlimit="10" stroke-width="3.210000157356262" stroke-dasharray=""/><path fill="none" stroke="#000000" paint-order="fill stroke markers" d=" M 180 35.310001730918884 L 333 35.310001730918884 L 333 102.72000503540039 L 180 102.72000503540039 L 180 35.310001730918884" stroke-linecap="square" stroke-linejoin="round" stroke-miterlimit="10" stroke-width="3.210000157356262" stroke-dasharray=""/><path fill="none" stroke="#000000" paint-order="fill stroke markers" d=" M 288 44.94000220298767 L 321 44.94000220298767 L 321 89.88000440597534 L 288 89.88000440597534 L 288 44.94000220298767" stroke-linecap="square" stroke-linejoin="round" stroke-miterlimit="10" stroke-width="3.210000157356262" stroke-dasharray=""/><path fill="none" stroke="#000000" paint-order="fill stroke markers" d=" M 294 48.15000236034393 L 315 48.15000236034393 L 315 86.67000424861908 L 294 86.67000424861908 L 294 48.15000236034393" stroke-linecap="square" stroke-linejoin="round" stroke-miterlimit="10" stroke-width="3.210000157356262" stroke-dasharray=""/><path fill="none" stroke="#000000" paint-order="fill stroke markers" d=" M 141 182.97000896930695 L 150 182.97000896930695 L 150 189.39000928401947 L 141 202.23000991344452 L 141 182.97000896930695" stroke-linecap="square" stroke-linejoin="round" stroke-miterlimit="10" stroke-width="3.210000157356262" stroke-dasharray=""/><path fill="none" stroke="#000000" paint-order="fill stroke markers" d=" M 123 446.19002187252045 L 123 381.9900187253952 L 144 381.9900187253952 L 159 365.9400179386139 L 159 337.05001652240753 L 171 343.47001683712006 L 195 343.47001683712006 L 195 349.8900171518326 L 207 365.9400179386139 L 219 365.9400179386139 L 219 372.3600182533264 L 201 401.2500196695328 L 177 410.88002014160156 L 177 446.19002187252045 L 123 446.19002187252045" stroke-linecap="square" stroke-linejoin="round" stroke-miterlimit="10" stroke-width="3.210000157356262" stroke-dasharray=""/><path fill="none" stroke="#000000" paint-order="fill stroke markers" d=" M 159 304.9500149488449 L 159 321.0000157356262 L 174 311.37001526355743 L 159 304.9500149488449" stroke-linecap="square" stroke-linejoin="round" stroke-miterlimit="10" stroke-width="3.210000157356262" stroke-dasharray=""/><path fill="none" stroke="#000000" paint-order="fill stroke markers" d=" M 171 314.5800154209137 L 159 321.0000157356262 L 159 304.9500149488449 L 222 304.9500149488449 L 192 337.05001652240753 L 189 337.05001652240753 L 195 330.630016207695 L 180 314.5800154209137 L 171 314.5800154209137" stroke-linecap="square" stroke-linejoin="round" stroke-miterlimit="10" stroke-width="3.210000157356262" stroke-dasharray=""/><path fill="none" stroke="#000000" paint-order="fill stroke markers" d=" M 234 304.9500149488449 L 255 304.9500149488449 L 255 321.0000157356262 L 243 346.6800169944763 L 234 359.52001762390137 L 219 362.73001778125763 L 210 362.73001778125763 L 201 349.8900171518326 L 201 340.2600166797638 L 234 304.9500149488449" stroke-linecap="square" stroke-linejoin="round" stroke-miterlimit="10" stroke-width="3.210000157356262" stroke-dasharray=""/><path fill="none" stroke="#000000" paint-order="fill stroke markers" d=" M 204 340.2600166797638 L 204 349.8900171518326 L 210 359.52001762390137 L 216 359.52001762390137 L 228 356.3100174665451 L 231 346.6800169944763 L 219 337.05001652240753 L 204 340.2600166797638" stroke-linecap="square" stroke-linejoin="round" stroke-miterlimit="10" stroke-width="3.210000157356262" stroke-dasharray=""/><path fill="none" stroke="#000000" paint-order="fill stroke markers" d=" M 162 333.84001636505127 L 186 340.2600166797638 L 192 330.630016207695 L 180 317.79001557826996 L 171 317.79001557826996 L 162 324.2100158929825 L 162 333.84001636505127" stroke-linecap="square" stroke-linejoin="round" stroke-miterlimit="10" stroke-width="3.210000157356262" stroke-dasharray=""/><path fill="none" stroke="#000000" paint-order="fill stroke markers" d=" M 378 35.310001730918884 L 411 70.62000346183777 L 411 301.74001479148865" stroke-linecap="square" stroke-linejoin="round" stroke-miterlimit="10" stroke-width="3.210000157356262" stroke-dasharray=""/></g></g></svg>