<svg version="1.1" xmlns="http://www.w3.org/2000/svg" xmlns:xlink="http://www.w3.org/1999/xlink" width="500" height="500"><defs/><g><g><path fill="none" stroke="#000000" paint-order="fill stroke markers" d=" M 105 35.310001730918884 L 174 35.310001730918884 L 174 105.93000519275665 L 339 105.93000519275665 L 339 35.310001730918884 L 375 35.310001730918884 L 408 70.62000346183777 L 408 301.74001479148865 L 381 301.74001479148865 L 381 179.76000881195068 L 192 179.76000881195068 L 186 173.34000849723816 L 159 173.34000849723816 L 156 179.76000881195068 L 135 179.76000881195068 L 135 208.65001022815704 L 105 231.12001132965088 L 105 35.310001730918884" stroke-linecap="square" stroke-linejoin="round" stroke-miterlimit="10" stroke-width="3.210000157356262" stroke-dasharray=""/></g><g><path fill="none" stroke="#000000" paint-order="fill stroke markers" d=" M 99 243 L 99 33.75 L 378 33.75 L 414 74.25 L 414 320.625 L 258 320.625 L 258 337.5 L 246 364.5 L 234 381.375 L 222 391.5 L 204 421.875 L 180 435.375 L 180 472.5 L 30 472.5 L 30 367.875 L 27 367.875 L 27 273.375 L 39 253.125 L 60 232.875 L 63 219.375 L 75 195.75 L 90 185.625 L 99 182.25 L 99 182.25 L 90 189 L 78 195.75 L 66 219.375 L 63 232.875 L 42 253.125 L 30 273.375 L 30 364.5 L 33 367.875 L 33 469.125 L 120 469.125 L 120 398.25 L 144 398.25 L 156 384.75 L 156 320.625 L 150 310.5 L 150 276.75 L 195 232.875 L 195 192.375 L 186 185.625 L 177 185.625 L 186 195.75 L 186 219.375 L 183 222.75 L 162 222.75 L 153 212.625 L 126 236.25 L 90 256.5 L 54 286.875 L 54 283.5 L 90 253.125 L 78 249.75 L 69 239.625 L 78 246.375 L 90 249.75 L 99 243" stroke-linecap="square" stroke-linejoin="round" stroke-miterlimit="10" stroke-width="3.375" stroke-dasharray=""/><path fill="none" stroke="#000000" paint-order="fill stroke markers" d=" M 150 205.875 L 156 182.25 L 180 185.625 L 183 195.75 L 183 219.375 L 162 219.375 L 150 205.875" stroke-linecap="square" stroke-linejoin="round" stroke-miterlimit="10" stroke-width="3.375" stroke-dasharray=""/><path fill="none" stroke="#000000" paint-order="fill stroke markers" d=" M 153 310.5 L 153 276.75 L 198 232.875 L 198 192.375 L 375 192.375 L 375 317.25 L 156 317.25 L 153 303.75" stroke-linecap="square" stroke-linejoin="round" stroke-miterlimit="10" stroke-width="3.375" stroke-dasharray=""/><path fill="none" stroke="#000000" paint-order="fill stroke markers" d=" M 180 37.125 L 333 37.125 L 333 108 L 180 108 L 180 37.125" stroke-linecap="square" stroke-linejoin="round" stroke-miterlimit="10" stroke-width="3.375" stroke-dasharray=""/><path fill="none" stroke="#000000" paint-order="fill stroke markers" d=" M 288 47.25 L 321 47.25 L 321 94.5 L 288 94.5 L 288 47.25" stroke-linecap="square" stroke-linejoin="round" stroke-miterlimit="10" stroke-width="3.375" stroke-dasharray=""/></g><g><path fill="none" stroke="#000000" paint-order="fill stroke markers" d=" M 294 50.625 L 315 50.625 L 315 91.125 L 294 91.125 L 294 50.625" stroke-linecap="square" stroke-linejoin="round" stroke-miterlimit="10" stroke-width="3.375" stroke-dasharray=""/></g><g><path fill="none" stroke="#000000" paint-order="fill stroke markers" d=" M 141 192.375 L 150 192.375 L 150 199.125 L 141 212.625 L 141 192.375" stroke-linecap="square" stroke-linejoin="round" stroke-miterlimit="10" stroke-width="3.375" stroke-dasharray=""/><path fill="none" stroke="#000000" paint-order="fill stroke markers" d=" M 123 469.125 L 123 401.625 L 144 401.625 L 159 384.75 L 159 354.375 L 171 361.125 L 195 361.125 L 195 367.875 L 207 384.75 L 219 384.75 L 219 391.5 L 201 421.875 L 177 432 L 177 469.125 L 123 469.125" stroke-linecap="square" stroke-linejoin="round" stroke-miterlimit="10" stroke-width="3.375" stroke-dasharray=""/><path fill="none" stroke="#000000" paint-order="fill stroke markers" d=" M 159 320.625 L 159 337.5 L 174 327.375 L 159 320.625" stroke-linecap="square" stroke-linejoin="round" stroke-miterlimit="10" stroke-width="3.375" stroke-dasharray=""/><path fill="none" stroke="#000000" paint-order="fill stroke markers" d=" M 171 330.75 L 159 337.5 L 159 320.625 L 222 320.625 L 192 354.375 L 189 354.375 L 195 347.625 L 180 330.75 L 171 330.75" stroke-linecap="square" stroke-linejoin="round" stroke-miterlimit="10" stroke-width="3.375" stroke-dasharray=""/><path fill="none" stroke="#000000" paint-order="fill stroke markers" d=" M 234 320.625 L 255 320.625 L 255 337.5 L 243 364.5 L 234 378 L 219 381.375 L 210 381.375 L 201 367.875 L 201 357.75 L 234 320.625" stroke-linecap="square" stroke-linejoin="round" stroke-miterlimit="10" stroke-width="3.375" stroke-dasharray=""/><path fill="none" stroke="#000000" paint-order="fill stroke markers" d=" M 204 357.75 L 204 367.875 L 210 378 L 216 378 L 228 374.625 L 231 364.5 L 219 354.375 L 204 357.75" stroke-linecap="square" stroke-linejoin="round" stroke-miterlimit="10" stroke-width="3.375" stroke-dasharray=""/><path fill="none" stroke="#000000" paint-order="fill stroke markers" d=" M 162 351 L 186 357.75 L 192 347.625 L 180 334.125 L 171 334.125 L 162 340.875 L 162 351" stroke-linecap="square" stroke-linejoin="round" stroke-miterlimit="10" stroke-width="3.375" stroke-dasharray=""/><path fill="none" stroke="#000000" paint-order="fill stroke markers" d=" M 378 37.125 L 411 74.25 L 411 317.25" stroke-linecap="square" stroke-linejoin="round" stroke-miterlimit="10" stroke-width="3.375" stroke-dasharray=""/></g><g/><g/><g/><g/><g/><g/><g/><g/></g></svg>